# xmcd
#
# Track frame offsets:
#	150
#	8081
#	21727
#	33547
#	45258
#	57184
#	68399
#	82016
#	93586
#	104315
#	114409
#	126647
#	136253
#	144978
#	153673
#	164561
#	175157
#	187083
#	197383
#	210512
#	229284
#
# Disc length: 3237 seconds
#
# Revision: 1
# Processed by: cddbd v1.5.2PL0 Copyright (c) Steve Scherf et al.
# Submitted via: audiograbber 1.83.01
#
DISCID=250ca315
DTITLE=Greenhorns - Hromskej den Zelenacu
DYEAR=1900
DGENRE=Country
TTITLE0=Vlak na Flint Hill
TTITLE1=A slunce pali jen
TTITLE2=Cizinec
TTITLE3=Bilej snih
TTITLE4=Hromskej den
TTITLE5=Holky jdou
TTITLE6=Reknete ji
TTITLE7=Rok 1849
TTITLE8=Uz te vlak privazi
TTITLE9=Hej, Joe
TTITLE10=Michaluv song
TTITLE11=Honzuv song
TTITLE12=Step hori
TTITLE13=Sneznej muz
TTITLE14=Casey Jones
TTITLE15=Blues lineho sprezeni
TTITLE16=Jizni vitr
TTITLE17=Oci pali a silnice je jak...
TTITLE18=Vlak ma zelenou
TTITLE19=Oranzovy expres
TTITLE20=Bida s nouzi
EXTD=
EXTT0=
EXTT1=
EXTT2=
EXTT3=
EXTT4=
EXTT5=
EXTT6=
EXTT7=
EXTT8=
EXTT9=
EXTT10=
EXTT11=
EXTT12=
EXTT13=
EXTT14=
EXTT15=
EXTT16=
EXTT17=
EXTT18=
EXTT19=
EXTT20=
PLAYORDER=
